<svg xmlns="http://www.w3.org/2000/svg" width="1500" height="880" viewBox="0 0 1500 880">
<defs>
  <marker id="arrow_0f766e" viewBox="0 0 10 10" refX="8.5" refY="5" markerWidth="7" markerHeight="7" orient="auto-start-reverse">
    <path d="M 0 0 L 10 5 L 0 10 z" fill="#0f766e"/>
  </marker>
  <marker id="arrow_2563eb" viewBox="0 0 10 10" refX="8.5" refY="5" markerWidth="7" markerHeight="7" orient="auto-start-reverse">
    <path d="M 0 0 L 10 5 L 0 10 z" fill="#2563eb"/>
  </marker>
  <marker id="arrow_7c3aed" viewBox="0 0 10 10" refX="8.5" refY="5" markerWidth="7" markerHeight="7" orient="auto-start-reverse">
    <path d="M 0 0 L 10 5 L 0 10 z" fill="#7c3aed"/>
  </marker>
  <marker id="arrow_d97706" viewBox="0 0 10 10" refX="8.5" refY="5" markerWidth="7" markerHeight="7" orient="auto-start-reverse">
    <path d="M 0 0 L 10 5 L 0 10 z" fill="#d97706"/>
  </marker>
  <marker id="arrow_dc2626" viewBox="0 0 10 10" refX="8.5" refY="5" markerWidth="7" markerHeight="7" orient="auto-start-reverse">
    <path d="M 0 0 L 10 5 L 0 10 z" fill="#dc2626"/>
  </marker>
  <filter id="shadow" x="-10%" y="-10%" width="120%" height="120%">
    <feDropShadow dx="0" dy="5" stdDeviation="5" flood-color="#0f172a" flood-opacity="0.13"/>
  </filter>
</defs>
<rect width="100%" height="100%" fill="#fbfcfe"/>
<text x="54" y="62" font-family="Inter,Segoe UI,Arial,sans-serif" font-size="34" font-weight="800" fill="#14213d">MCP and tooling stack</text>
<text x="54" y="95" font-family="Inter,Segoe UI,Arial,sans-serif" font-size="18" font-weight="500" fill="#526171">Reduce schema cost, turn count, command output, and repeated orientation separately.</text>
<path d="M 290 280 L 150 280 L 150 650 L 290 650" fill="none" stroke="#dc2626" stroke-width="3" marker-end="url(#arrow_dc2626)"/>
<path d="M 750 280 L 750 650" fill="none" stroke="#d97706" stroke-width="3" marker-end="url(#arrow_d97706)"/>
<path d="M 1210 280 L 1360 280 L 1360 650 L 1210 650" fill="none" stroke="#7c3aed" stroke-width="3" marker-end="url(#arrow_7c3aed)"/>
<path d="M 445 510 L 445 575 L 610 575 L 610 650" fill="none" stroke="#2563eb" stroke-width="3" marker-end="url(#arrow_2563eb)"/><rect x="530" y="541" width="160" height="30" rx="15" fill="#fbfcfe" stroke="none"/><text x="610" y="562" text-anchor="middle" font-family="Inter,Segoe UI,Arial,sans-serif" font-size="16" font-weight="700" fill="#2563eb">Graphify</text>
<path d="M 1060 510 L 1060 575 L 890 575 L 890 650" fill="none" stroke="#0f766e" stroke-width="3" marker-end="url(#arrow_0f766e)"/><rect x="810" y="541" width="160" height="30" rx="15" fill="#fbfcfe" stroke="none"/><text x="890" y="562" text-anchor="middle" font-family="Inter,Segoe UI,Arial,sans-serif" font-size="16" font-weight="700" fill="#0f766e">Coach / chronicle</text>
<rect x="95" y="175" width="390" height="105" rx="16" fill="#fee2e2" stroke="#dc2626" stroke-width="2.5"/>
<text x="290.0" y="222.4" text-anchor="middle" font-family="Inter,Segoe UI,Arial,sans-serif" font-size="23" font-weight="600" fill="#14213d">Tool schemas</text>
<text x="290.0" y="250.5" text-anchor="middle" font-family="Inter,Segoe UI,Arial,sans-serif" font-size="23" font-weight="600" fill="#14213d">MCP servers, extensions</text>
<rect x="555" y="175" width="390" height="105" rx="16" fill="#fef3c7" stroke="#d97706" stroke-width="2.5"/>
<text x="750.0" y="222.4" text-anchor="middle" font-family="Inter,Segoe UI,Arial,sans-serif" font-size="23" font-weight="600" fill="#14213d">Turn loop</text>
<text x="750.0" y="250.5" text-anchor="middle" font-family="Inter,Segoe UI,Arial,sans-serif" font-size="23" font-weight="600" fill="#14213d">model ↔ tool ↔ model</text>
<rect x="1015" y="175" width="390" height="105" rx="16" fill="#ede9fe" stroke="#7c3aed" stroke-width="2.5"/>
<text x="1210.0" y="222.4" text-anchor="middle" font-family="Inter,Segoe UI,Arial,sans-serif" font-size="23" font-weight="600" fill="#14213d">Command output</text>
<text x="1210.0" y="250.5" text-anchor="middle" font-family="Inter,Segoe UI,Arial,sans-serif" font-size="23" font-weight="600" fill="#14213d">tests, git, grep, build</text>
<rect x="250" y="405" width="390" height="105" rx="16" fill="#dbeafe" stroke="#2563eb" stroke-width="2.5"/>
<text x="445.0" y="452.4" text-anchor="middle" font-family="Inter,Segoe UI,Arial,sans-serif" font-size="23" font-weight="600" fill="#14213d">Orientation reads</text>
<text x="445.0" y="480.5" text-anchor="middle" font-family="Inter,Segoe UI,Arial,sans-serif" font-size="23" font-weight="600" fill="#14213d">same files every session</text>
<rect x="865" y="405" width="390" height="105" rx="16" fill="#ccfbf1" stroke="#0f766e" stroke-width="2.5"/>
<text x="1060.0" y="452.4" text-anchor="middle" font-family="Inter,Segoe UI,Arial,sans-serif" font-size="23" font-weight="600" fill="#14213d">Visibility/audit</text>
<text x="1060.0" y="480.5" text-anchor="middle" font-family="Inter,Segoe UI,Arial,sans-serif" font-size="23" font-weight="600" fill="#14213d">measure what loads</text>
<rect x="95" y="650" width="390" height="80" rx="16" fill="#dcfce7" stroke="#16a34a" stroke-width="2.5"/>
<text x="290.0" y="685.2" text-anchor="middle" font-family="Inter,Segoe UI,Arial,sans-serif" font-size="22" font-weight="600" fill="#14213d">Fix: scope MCPs</text>
<text x="290.0" y="712.0" text-anchor="middle" font-family="Inter,Segoe UI,Arial,sans-serif" font-size="22" font-weight="600" fill="#14213d">prefer built-ins</text>
<rect x="555" y="650" width="390" height="80" rx="16" fill="#dcfce7" stroke="#16a34a" stroke-width="2.5"/>
<text x="750.0" y="685.2" text-anchor="middle" font-family="Inter,Segoe UI,Arial,sans-serif" font-size="22" font-weight="600" fill="#14213d">Fix: CodeAct</text>
<text x="750.0" y="712.0" text-anchor="middle" font-family="Inter,Segoe UI,Arial,sans-serif" font-size="22" font-weight="600" fill="#14213d">for long tool chains</text>
<rect x="1015" y="650" width="390" height="80" rx="16" fill="#dcfce7" stroke="#16a34a" stroke-width="2.5"/>
<text x="1210.0" y="685.2" text-anchor="middle" font-family="Inter,Segoe UI,Arial,sans-serif" font-size="22" font-weight="600" fill="#14213d">Fix: RTK or snip</text>
<text x="1210.0" y="712.0" text-anchor="middle" font-family="Inter,Segoe UI,Arial,sans-serif" font-size="22" font-weight="600" fill="#14213d">one filter layer</text>
</svg>